<svg version="1.2" xmlns="http://www.w3.org/2000/svg" viewBox="0 0 862 731" width="862" height="731">
	<title>logo-svg</title>
	<style>
		.s0 { fill: none;stroke: #00693d;stroke-width: 4.2 } 
		.s1 { fill: none;stroke: #00693d;stroke-width: 10.3 } 
		.s2 { fill: #00693d } 
		.s3 { fill: none;stroke: #00693d;stroke-width: 12.1 } 
		.s4 { fill: #236f46 } 
		.s5 { fill: none;stroke: #ff3921;stroke-width: 10.3 } 
		.s6 { fill: none;stroke: #236f46;stroke-width: 10.3 } 
	</style>
	<g id="Fondo">
	</g>
	<g id="Guías">
	</g>
	<g id="Primer plano">
	</g>
	<g id="Foreground">
		<path id="&lt;Path&gt;" class="s0" d=""/>
		<path id="&lt;Path&gt;" class="s0" d=""/>
		<path id="&lt;Path&gt;" class="s1" d=""/>
		<path id="&lt;Path&gt;" class="s1" d=""/>
		<g id="&lt;Group&gt;">
			<path id="&lt;Path&gt;" class="s2" d="m532.4 370.4c4.2-1.2 8.7 1.9 10.1 6.8l14.2 49.5c1.5 5-0.8 10-5 11.2-4.2 1.2-8.7-1.9-10.2-6.8l-14.2-49.5c-1.4-5 0.9-10 5.1-11.2z"/>
			<path id="&lt;Path&gt;" class="s2" d="m648.9 332.7c4.2-1.2 8.8 1.9 10.2 6.8l14.2 49.5c1.4 5-0.8 10-5 11.2-4.2 1.2-8.8-1.9-10.2-6.8l-14.2-49.5c-1.4-5 0.8-10 5-11.2z"/>
			<path id="&lt;Path&gt;" class="s3" d="m798.5 255.8l-46.3-154.1"/>
			<path id="&lt;Path&gt;" class="s2" d="m457.9 285l70.1-20.6 5.4 8.4-81.1 25.8z"/>
			<path id="&lt;Path&gt;" class="s2" d="m303.6 320.5l245.3-75.4-20.9 19.3-225.8 73.9z"/>
			<path id="&lt;Path&gt;" class="s0" d="m612.1 322.3l24.6 43-34.2-11.4"/>
			<path id="&lt;Path&gt;" class="s2" d="m542.6 395.9l49.7-14.9 7 12.1-52.2 16.8z"/>
			<path id="&lt;Path&gt;" class="s2" d="m347.7 393.5l208.1-66.2 21.5 10-231.4 73.7z"/>
			<g id="&lt;Group&gt;">
				<g id="&lt;Group&gt;">
					<path id="&lt;Path&gt;" class="s2" d="m98.6 532l-11.1 20.9 16.5 17.1-23.4-4.2-11.1 21-3.3-23.5-23.3-4.1 21.3-10.4-3.3-23.5 16.4 17.1z"/>
					<path id="&lt;Path&gt;" class="s2" d="m76 465.4l-14.5 18.6 13.2 19.7-22.3-8.1-14.6 18.7 0.9-23.7-22.3-8.1 22.8-6.6 0.8-23.6 13.3 19.6z"/>
					<path id="&lt;Path&gt;" class="s2" d="m61.8 394.7l-17.9 15.6 9.3 21.8-20.3-12.2-17.9 15.5 5.3-23.1-20.3-12.2 23.6-2 5.3-23.1 9.3 21.8z"/>
					<path id="&lt;Path&gt;" class="s2" d="m64.5 326.8l-20.3 12.2 5.3 23.1-17.9-15.5-20.3 12.2 9.2-21.8-17.8-15.6 23.6 2.1 9.2-21.9 5.4 23.1z"/>
					<path id="&lt;Path&gt;" class="s2" d="m85.9 257.9l-23.2 4.9-2.5 23.6-11.8-20.5-23.2 4.9 15.9-17.6-11.9-20.6 21.7 9.7 15.8-17.6-2.5 23.6z"/>
					<path id="&lt;Path&gt;" class="s2" d="m120.9 192.9l-23.7 1.2-6.1 22.9-8.5-22.1-23.7 1.2 18.4-14.9-8.5-22.1 19.9 12.9 18.4-14.9-6.1 22.9z"/>
				</g>
				<g id="&lt;Group&gt;">
					<path id="&lt;Path&gt;" class="s2" d="m500.2 70.7l-23.5-3.3 20.9-11.2-4.1-23.3 17 16.5 21-11.2-10.4 21.3 17 16.5-23.4-3.3-10.4 21.3z"/>
					<path id="&lt;Path&gt;" class="s2" d="m431.6 51l-23.5 2.9 17.3-16.2-10-21.4 20.7 11.4 17.4-16.1-4.6 23.3 20.8 11.4-23.6 2.9-4.5 23.3z"/>
					<path id="&lt;Path&gt;" class="s2" d="m352.5 37.4l-20.1-12.6 23.6-1.7 5.8-23 8.8 22 23.7-1.6-18.2 15.2 8.9 22-20.1-12.6-18.2 15.2z"/>
					<path id="&lt;Path&gt;" class="s2" d="m273.1 51.7l-19-14.3 23.7 0.4 7.7-22.4 7 22.7 23.7 0.4-19.5 13.6 7 22.6-19-14.2-19.4 13.6z"/>
					<path id="&lt;Path&gt;" class="s2" d="m198 82.5l-21.5-10 23.3-4.5 2.9-23.5 11.5 20.7 23.2-4.5-16.1 17.3 11.5 20.8-21.5-10.1-16.2 17.4z"/>
					<path id="&lt;Path&gt;" class="s2" d="m133.3 130.8l-22-8.9 23-5.8 1.7-23.6 12.5 20.1 23-5.7-15.2 18.1 12.5 20.1-21.9-8.9-15.3 18.2z"/>
				</g>
			</g>
			<g id="&lt;Group&gt;">
				<path id="&lt;Compound Path&gt;" fill-rule="evenodd" class="s2" d="m164.2 619.6l-6.2 15.6h-24.8l34.6-90h25.6l33.9 90h-25l-5.8-15.6zm16.3-46.5h-0.2l-9.7 28.6h19.5z"/>
				<path id="&lt;Path&gt;" class="s2" d="m257.3 565v15.1h26.4v19.8h-26.4v15.5h27.8v19.9h-51.2v-90.1h51.2v19.8z"/>
				<path id="&lt;Compound Path&gt;" fill-rule="evenodd" class="s2" d="m373.9 635.3h-29.1l-22.1-34.7h-0.2v34.7h-23.4v-90.1h34.9c17.8 0.1 31.3 8.5 31.3 27.8 0 12.4-6.9 23.1-19.7 25.4zm-51.4-49.7h2.2c7.7 0 16.3-1.4 16.3-11.2 0-9.8-8.6-11.2-16.3-11.2h-2.2z"/>
				<path id="&lt;Compound Path&gt;" fill-rule="evenodd" class="s2" d="m474.7 588.6c0 29.1-20.9 49.7-49.8 49.6-28.9 0-49.7-20.5-49.7-49.6-0.1-27.2 23.8-46.3 49.7-46.3 25.9 0 49.8 19.1 49.8 46.3zm-75.2 0.1c0 15.5 11.5 26.9 25.4 26.9 14 0 25.5-11.4 25.5-26.9 0-12.4-11.5-23.7-25.5-23.7-13.9 0-25.4 11.3-25.4 23.7z"/>
				<path id="&lt;Path&gt;" class="s2" d="m520.7 635.3h-23.4v-70.2h-19.4v-19.8h62.1v19.8h-19.3z"/>
				<path id="&lt;Path&gt;" class="s2" d="m571.4 565.1v15h26.4v19.9h-26.4v15.5h27.8l0.1 19.8h-51.3v-90h51.2v19.8z"/>
				<path id="&lt;Path&gt;" class="s2" d="m677.6 575.5c-4.8-6.5-12.6-9.9-20.6-9.9-14.3 0-24 11-24 24.9 0 14.2 9.8 24.5 24.4 24.5 7.6 0 15.3-3.7 20.2-9.5v28c-7.8 2.4-13.4 4.2-20.7 4.2-12.5 0-24.5-4.8-33.8-13.3-9.9-8.9-14.4-20.6-14.4-34 0-12.3 4.6-24.1 13.2-32.9 8.8-9.1 21.6-14.6 34.3-14.6 7.5 0 14.4 1.7 21.3 4.5z"/>
			</g>
			<path id="&lt;Path&gt;" class="s3" d="m367 395.8l-47.7-153.6"/>
			<path id="&lt;Path&gt;" class="s0" d="m519.3 255.8l-43.6-60.8 62.9 23"/>
			<path id="&lt;Path&gt;" class="s0" d="m583.2 360l-21.2 29.7-5-49.3"/>
			<path id="&lt;Path&gt;" class="s1" d="m576 331.5c-23.7 3.7-45.9-12.5-49.7-36.1"/>
			<path id="&lt;Path&gt;" class="s1" d="m565 245.2c23.7-3.8 43.4 12.9 47.1 36.6"/>
			<g id="&lt;Group&gt;">
				<path id="&lt;Compound Path&gt;" fill-rule="evenodd" class="s2" d="m203.6 703.1c-0.2 2.2-0.1 4.1 1.5 7 1.3 1.9 3.1 4 6.4 4 5.6 0 6.8-4.9 7.5-6.8h4.5c-0.3 2-0.7 4.2-2.5 6.5-2.1 3.2-5.7 4.8-9.5 4.8-3.7 0-7.5-1.6-9.9-5.2-1.9-2.7-2.9-7.4-2.8-12.2 0-4.7 1.1-9.5 3.4-12.5 3.1-3.9 6.9-5.2 10.4-4.8 3.5 0.3 6.7 2.1 8.4 4.6 3 4.7 3.1 8.6 3.1 14.6zm15.7-4.6c0.2-3-1.3-6.7-2-7.5-0.6-1.5-2.7-2.6-4.9-2.9-2.2-0.2-4.7 0.5-6.2 2.9-0.7 0.7-2.3 4.2-2.4 7.5z"/>
				<path id="&lt;Path&gt;" class="s2" d="m232.3 707.6c0.2 3.2 1.7 5.2 4.9 6.3 1.1 0.4 2.5 0.4 4 0.4 1.4-0.4 2.8-0.9 3.5-1.5 1-0.8 1.8-2.3 1.8-3.9 0-1.7-0.8-3.3-3.1-4.2-3.5-1-8-2-10.4-3.2-2.2-1-4.2-3.2-4.2-7.9 0-6.2 4.9-9.7 10.4-9.7 9.3 0 10.4 6.3 10.5 10h-4.4c0-1.7-0.2-5.2-6.5-5.2-2.7 0-4.8 1.7-5.5 3.4-0.6 1.7-0.2 3.6 1.4 4.5 1.5 1 3.8 1.6 6.6 2.4 2.2 0.4 4.5 1 6.5 2.5 2.5 1.6 3.4 4.8 3 8-0.3 3.1-2.1 6.2-5 7.8-1.5 0.7-3.3 1.1-5.2 1.3-1.8 0-3.8 0-5.4-0.4-6.5-1.7-7.1-7.5-7.1-10.6z"/>
				<path id="&lt;Path&gt;" class="s2" d="m278.5 706c-0.1 2.7-0.7 5.1-1.5 6.6-2.2 4.2-6.5 6.2-10.6 6-4.2-0.2-8.1-2.6-9.9-6.8-1.1-2.7-2-6.7-1.9-11 0.1-4.3 1.1-8.8 4-12.6 2.3-2.9 5.4-4.2 8.5-4.3 3-0.1 6 0.9 7.9 2.9 2.2 1.6 3.2 5.2 3.5 8.9h-4.4c-0.5-3.4-1.2-5-3-6-0.9-0.5-2.2-1.2-3.9-1.1-1.7 0.1-3.7 0.9-5.5 3.4-1.3 1.6-2 4.8-2.2 8-0.3 3.3 0.1 6.6 1 8.7 1.7 3.9 4.5 5.2 7 5 2.5-0.2 4.7-1.7 5.3-3.5 0.7-1.3 1.2-2.9 1.4-4.2z"/>
				<path id="&lt;Path&gt;" class="s2" d="m300.9 717.2v-3.5h-0.1c-0.8 1.6-2 2.9-3.1 3.6-1.4 0.9-3.6 1.3-5.7 1.3-2 0-3.8-0.4-4.5-0.7-2.1-1.3-3.9-3.8-4.4-7.3v-25.8h4.5v22.9c-0.1 2.4 0.7 4.2 2.1 5.2 0.7 0.5 1.6 0.8 2.5 0.8q1.5 0.2 3.2-0.3c4.9-2 5.5-6.8 5.5-11v-17.6h4.6v32.4z"/>
				<path id="&lt;Compound Path&gt;" fill-rule="evenodd" class="s2" d="m316.2 703.1c-0.2 2.2 0 4.1 1.6 7 1.2 1.9 3 4 6.3 4 5.6 0 6.9-4.9 7.5-6.8h4.6c-0.4 2-0.8 4.2-2.5 6.5-2.1 3.2-5.8 4.8-9.5 4.8-3.8 0-7.6-1.6-10-5.2-1.9-2.7-2.9-7.4-2.8-12.2 0-4.7 1.1-9.5 3.5-12.5 3-3.9 6.8-5.2 10.3-4.8 3.5 0.3 6.7 2.1 8.4 4.6 3.1 4.7 3.1 8.6 3.2 14.6zm15.7-4.6c0.1-3-1.4-6.7-2.1-7.5-0.6-1.5-2.6-2.6-4.9-2.9-2.2-0.2-4.7 0.5-6.2 2.9-0.7 0.7-2.3 4.2-2.4 7.5z"/>
				<path id="&lt;Path&gt;" class="s2" d="m342.5 672.2h4.5v45h-4.5z"/>
				<path id="&lt;Compound Path&gt;" fill-rule="evenodd" class="s2" d="m376.3 712.3c0 0.9 1 1.9 2.1 1.9 0.3 0 0.7 0 1-0.2v4.1c-1 0.3-1.9 0.5-3.4 0.5-2.1 0-4.1-2.5-4.2-4.7-2.2 1.9-5.3 4.7-9 4.7-6.3 0-10.2-3.8-9.8-10.1 0.3-5.4 3-7.5 5.9-8.5 5.1-1.7 7.7-1.1 10.4-1.9 0.6-0.1 2.2-0.7 2.2-2.4v-3.9c-0.3-2.3-4.2-3.3-7.3-3.3-5.3 0-5.6 4.5-5.7 6h-4.2l0.1-2.9c0.4-1.8 1.7-4.7 4.7-6.3 1.4-0.8 3.2-1.4 5.8-1.4 1.5 0 3.1 0 4.8 0.5 3.6 0.9 6.5 3.1 6.6 6.3zm-4.7-11c-3.6 1.7-8.7 1.6-11.3 2.9-0.8 0.4-2.7 2-2.7 4.4-0.1 4 2.5 5.5 4.9 5.6 6.2 0.2 9.1-5.3 9.1-6.4z"/>
				<path id="&lt;Compound Path&gt;" fill-rule="evenodd" class="s2" d="m421.8 672.2v45.1h-4v-3.8c-0.8 1.2-2.2 2.8-3.8 3.9-1.1 0.8-2.9 1.2-4.9 1.2-1.9 0-4-0.4-5.6-1.3-4.2-2.4-6.4-8.1-6.8-14-0.5-5.9 0.8-12 3.6-15.2 2.7-3.3 5.6-4.3 8.2-4.2 2.7 0 4.9 1 6.2 1.9 1.3 1 2.1 2.1 2.4 2.9h0.1v-16.5zm-11.8 41.5c2.2-0.2 4.4-1.4 5.5-3.5 3.6-7 1.2-15.6-0.3-17.9-1.2-2-3.4-3.1-5.6-3.1-2.2-0.2-4.5 0.8-5.9 3.1-2.4 3.8-3.1 13 0.4 18.5 1.5 2.2 3.7 3.1 5.9 2.9z"/>
				<path id="&lt;Compound Path&gt;" fill-rule="evenodd" class="s2" d="m431.8 703.1c-0.1 2.2 0 4.1 1.6 7 1.2 1.9 3 4 6.3 4 5.6 0 6.9-4.9 7.5-6.8h4.6c-0.4 2-0.8 4.2-2.5 6.5-2.1 3.2-5.8 4.8-9.5 4.8-3.7 0-7.6-1.6-10-5.2-1.9-2.7-2.9-7.4-2.8-12.2 0-4.7 1.2-9.5 3.5-12.5 3-3.9 6.8-5.2 10.3-4.8 3.5 0.3 6.7 2.1 8.4 4.6 3.1 4.7 3.1 8.6 3.2 14.6zm15.7-4.6c0.1-3-1.4-6.7-2.1-7.5-0.6-1.5-2.6-2.6-4.9-2.9-2.2-0.2-4.6 0.5-6.1 2.9-0.7 0.7-2.3 4.2-2.5 7.5z"/>
				<path id="&lt;Compound Path&gt;" fill-rule="evenodd" class="s2" d="m472.2 730.7v-45.9h3.9v4.1h0.1c0.8-1.4 1.9-2.5 3.8-3.8 1.1-0.8 2.9-1.2 4.8-1.2 2 0 4 0.4 5.7 1.3 4.1 2.4 6.3 8.1 6.8 14 0.5 5.8-0.8 12-3.6 15.2-2.7 3.2-5.7 4.2-8.3 4.2-2.6 0-4.9-1-6.1-2-1.3-0.9-2.2-2-2.5-2.9h-0.1v17zm11.8-42c-2.2 0.2-4.3 1.5-5.4 3.6-3.6 7-1.2 15.6 0.3 17.9 1.2 1.9 3.4 3 5.6 3.1 2.2 0.1 4.5-0.9 5.9-3.1 2.3-3.8 3-13-0.5-18.5-1.4-2.2-3.7-3.2-5.9-3z"/>
				<path id="&lt;Compound Path&gt;" class="s2" d="m507 717.2h-4.5v-32.4h4.5zm0-38.6h-4.5v-6.4h4.5z"/>
				<path id="&lt;Path&gt;" class="s2" d="m514.5 672.2h4.5v45h-4.5z"/>
				<path id="&lt;Compound Path&gt;" fill-rule="evenodd" class="s2" d="m537.3 718.6c-5.2 0-12.7-2.9-12.7-17.4 0-14.4 7.5-17.3 12.7-17.3 5.2 0 12.7 2.9 12.7 17.3 0 14.5-7.5 17.4-12.7 17.4zm0-29.6c-5.9 0-8.1 6.9-8.1 12.2 0 5.3 2.2 12.2 8.1 12.2 6 0 8.1-6.9 8.1-12.2 0-5.3-2.1-12.2-8.1-12.2z"/>
				<path id="&lt;Path&gt;" class="s2" d="m561.5 684.8h4.4v4.7h-4.4v22.5c0 2 1.9 2.2 4.4 1.7v4.5c-1.9 0.4-3.1 0.6-4.9 0.4-3.1-0.4-4-3.3-4-4.6v-24.5h-4v-4.7h4v-8.8h4.5z"/>
				<path id="&lt;Compound Path&gt;" fill-rule="evenodd" class="s2" d="m581.8 718.6c-5.2 0-12.8-2.9-12.8-17.4 0-14.4 7.6-17.3 12.8-17.3 5.1 0 12.7 2.9 12.7 17.3 0 14.5-7.6 17.4-12.7 17.4zm0-29.6c-6 0-8.1 6.9-8.1 12.2 0 5.3 2.1 12.2 8.1 12.2 5.9 0 8.1-6.9 8.1-12.2 0-5.3-2.2-12.2-8.1-12.2z"/>
				<path id="&lt;Path&gt;" class="s2" d="m602.8 707.6c0.2 3.2 1.7 5.2 4.9 6.3 1.1 0.4 2.5 0.4 4 0.4 1.4-0.4 2.8-0.9 3.5-1.5 1-0.8 1.8-2.3 1.8-3.9 0-1.7-0.8-3.3-3.1-4.2-3.5-1-8-2-10.4-3.2-2.2-1-4.2-3.2-4.2-7.9 0-6.2 4.9-9.7 10.4-9.7 9.3 0 10.4 6.3 10.5 10h-4.4c0-1.7-0.2-5.2-6.5-5.2-2.7 0-4.8 1.7-5.5 3.4-0.6 1.7-0.2 3.6 1.4 4.5 1.5 1 3.8 1.6 6.6 2.4 2.2 0.4 4.5 1 6.5 2.5 2.5 1.6 3.4 4.8 3 8-0.3 3.1-2 6.2-5 7.8-1.5 0.7-3.3 1.1-5.1 1.3-1.9 0-3.9 0-5.5-0.4-6.5-1.7-7.1-7.5-7.1-10.6z"/>
			</g>
			<path id="&lt;Path&gt;" class="s2" d="m225.6 263.1l624.4-197.5 11.5 8.2q-199.1 58.8-325.5 99.1-123.4 39.4-315 105z"/>
			<path id="&lt;Path&gt;" class="s2" d="m241.9 248.4l581.9-184.4 11.5 8.9-597.5 188.9z"/>
			<path id="&lt;Path&gt;" class="s0" d="m557.7 215l38.5-57.4 0.7 90.5"/>
			<path id="&lt;Path&gt;" class="s0" d="m561.3 289c-0.8-4.8 2.4-9.2 7.2-10 4.7-0.7 9.2 2.5 9.9 7.3 0.8 4.7-2.5 9.1-7.2 9.9-4.7 0.7-9.2-2.5-9.9-7.2z"/>
			<path id="&lt;Path&gt;" class="s0" d="m565 280q-37.4-62.3-31.2-108.3 0.3-1.4 1.4-0.3 35.1 48.5 34.7 107.2z"/>
			<path id="&lt;Path&gt;" class="s0" d="m576.5 295q37.4 62.4 30 106.4-0.3 1.5-1.4 0.4-35-48.6-34.7-105.5l2.5-0.6z"/>
		</g>
		<path id="&lt;Path&gt;" class="s4" d="m567.4 240.1l243.5-80.5 14 12.3-229.8 73.2z"/>
		<path id="&lt;Path&gt;" class="s4" d="m588.8 244l81.6-25.2 7.9 7.9-90 28.4z"/>
		<path id="&lt;Path&gt;" class="s2" d="m607.1 377.1l55.4-19.2 4.6 13.9-60 19.3z"/>
		<path id="&lt;Path&gt;" class="s4" d="m612.7 309.2l201.4-64.1 14 12.3-234.2 74.6z"/>
		<path id="&lt;Path&gt;" class="s5" d=""/>
		<path id="&lt;Path&gt;" class="s6" d="m604.3 263.5c14.2 21.1 9 49.3-11.6 62.8"/>
		<path id="&lt;Path&gt;" class="s6" d="m525.8 292.8c2.1 23 23 40 46.5 38"/>
		<path id="&lt;Path&gt;" class="s6" d="m549.2 250c-21.4 11.9-29.5 38.6-18.1 59.7"/>
		<path id="&lt;Path&gt;" class="s6" d="m565 245.2c24.5-1.7 45.7 16.4 47.5 40.3"/>
	</g>
</svg>